<?xml version="1.0" encoding="UTF-8"?>
<svg xmlns="http://www.w3.org/2000/svg" width="512" height="512" viewBox="0 0 512 512">
  <defs>
    <linearGradient id="g1" x1="0%" x2="0%" y1="0%" y2="100%">
      <stop offset="0%" stop-color="#FFB74D"/>
      <stop offset="60%" stop-color="#FB8C00"/>
      <stop offset="100%" stop-color="#F57C00"/>
    </linearGradient>
    <linearGradient id="g2" x1="0%" x2="0%" y1="0%" y2="100%">
      <stop offset="0%" stop-color="#FFEEAD"/>
      <stop offset="100%" stop-color="#FF8A65"/>
    </linearGradient>
  </defs>
  <rect width="100%" height="100%" fill="none"/>
  <g transform="translate(32,24) scale(0.85)">
    <path d="M216.5 12.3C196.6 54.8 172 81 163.6 110.1c-6.5 20.5 5.6 44 18.3 61.5 12.7 17.6 28.6 29.6 41.2 48.9 18.7 28.1 15.3 55.7 8.7 86.3-6.6 30.6-22.3 54.7-41.8 77.2-16.9 19.6-34.7 39.2-52.2 58.6C124 449 84 484 84 484s68.6-87.2 109.7-132.1c40.5-44.4 60.8-68.8 74-102.3 13.2-33.5 15.9-73.7-10.6-111.3-5-7.1-11.9-15.8-12.6-24.1-1.2-14.8 13.6-29.2 22.4-50.9 6.2-16 9.9-33.6 4.1-51.6-5.8-18-23.2-26.1-39.2-25.4-16 .7-32.5 7.1-47 16.6z" fill="url(#g1)"/>
    <path d="M207 150c-10 18-12 36-4 58 8 22 32 36 48 54 18 20 18 38 12 60-6 22-22 40-40 56-18 16-40 28-40 28s34-38 54-64c20-26 26-50 28-78 2-28-6-48-24-72-18-24-38-34-50-42z" fill="url(#g2)" opacity="0.95"/>
  </g>
</svg>
